<svg width="389" height="241" viewBox="0 0 389 241" fill="none" xmlns="http://www.w3.org/2000/svg">
<path d="M1.01215 206.637V51.2911C1.01215 25.1826 17.6978 19.9609 26.0407 20.6136L213.464 17.35C250.716 16.0446 331.04 13.0421 354.323 11.4756C377.605 9.90909 384.59 31.7097 385.172 42.8058C387.306 93.7174 390.294 199.587 385.172 215.775C378.769 236.009 326.966 228.176 319.981 232.092C312.996 236.009 95.3059 237.967 47.577 239.272C9.39381 240.317 0.624106 217.95 1.01215 206.637Z" fill="#F5EDCE" stroke="black" stroke-width="2" stroke-linecap="round"/>
<path d="M182.3 73.7877C177.762 66.3467 178.63 43.0052 179.631 32.2645L192.311 21.6346L209.662 19.9736H234.355L248.036 42.8944C257.913 51.9299 248.592 59.5037 242.697 62.1612L241.696 72.1268L246.701 80.4314L248.036 95.7119L226.346 108.999L183.969 103.684C185.303 96.8192 186.838 81.2286 182.3 73.7877Z" fill="#F69E70"/>
<path d="M198.876 47.9365L194.22 64.6017L198.21 63.2946C199.541 64.8195 202.201 66.7584 202.201 62.3143" stroke="black" stroke-width="2" stroke-linecap="round"/>
<path d="M206.761 41.6594C208.768 39.3276 214.657 35.8533 222.151 40.6101" stroke="black" stroke-width="2" stroke-linecap="round"/>
<path d="M181.979 40.5198C183.987 38.188 189.875 34.7136 197.37 39.4705" stroke="black" stroke-width="2" stroke-linecap="round"/>
<path d="M195.36 72.6469C198.82 74.7747 208.242 77.0394 214.988 69.5137" stroke="black" stroke-width="2" stroke-linecap="round"/>
<path d="M214.899 64.4863C214.447 67.0776 214.696 72.0574 219.301 71.2462" stroke="black" stroke-width="2" stroke-linecap="round"/>
<path d="M206.257 94.1613L224.431 77.041L201.631 85.2719L206.257 94.1613Z" fill="black"/>
<ellipse cx="212.461" cy="47.6512" rx="7.41019" ry="4.28008" fill="white"/>
<ellipse cx="210.181" cy="48.5073" rx="2.28006" ry="2.28271" fill="black"/>
<ellipse cx="187.95" cy="47.6512" rx="7.41018" ry="4.28008" fill="white"/>
<ellipse cx="185.67" cy="48.5073" rx="2.28006" ry="2.28271" fill="black"/>
<path d="M198.758 24.8983C188.638 21.1823 180.782 31.9764 178.119 37.8379C165.802 6.982 191.767 4.6595 197.094 1.67344C202.42 -1.31261 220.396 0.346309 237.706 1.67344C251.554 2.73515 258.567 16.7143 260.342 23.5712L258.81 76.3506L241.367 75.3294L242.306 62.1061L250.843 55.2687C252.84 41.9974 247.027 41.1557 240.036 42.4829C234.443 43.5446 231.936 49.7821 231.381 52.7682V33.8565C228.829 37.0637 224.124 42.0184 225.722 36.179C227.719 28.8797 222.06 26.889 216.734 22.9076C211.408 18.9262 204.417 36.5107 204.75 32.8611C205.016 29.9414 200.866 26.336 198.758 24.8983Z" fill="black"/>
<path d="M273.345 82.6705C266.458 75.495 249.065 73.4797 241.229 73.369C241.229 90.3774 232.841 99.0588 228.647 100.277C225.446 101.273 217.323 102.336 210.437 98.6159C203.55 94.8953 204.808 90.311 201.828 87.3212L197.915 86.0371L192.793 87.1767L185.963 82.0487L181.979 77.4904L180.289 73.3689C180.289 73.3689 179.918 71.1787 167.063 73.369C154.207 75.5593 125.676 98.6159 125.676 98.6159L114.418 141.469L150.839 137.483C149.184 156.418 144.548 198.208 139.251 213.888C133.953 229.568 141.458 237.031 145.873 238.803C174.016 239.467 233.547 240.397 246.526 238.803C259.505 237.208 261.646 233.487 261.095 231.826L267.385 146.452L289.9 178.011L315.063 166.384L300.164 123.198C294.094 112.679 280.232 89.8459 273.345 82.6705Z" fill="#FEC516"/>
<path d="M65.3918 16.958C98.0442 24.9313 136.736 52.5055 151.337 65.1298C148.018 81.4086 125.454 137.221 110.189 152.171C97.6922 164.411 66.7192 187.387 52.1185 194.031C25.9037 167.121 23.5808 150.842 13.9577 124.265C6.25915 103.003 11.8561 61.5862 15.6168 43.5356L65.3918 16.958Z" fill="white" stroke="white" stroke-width="2" stroke-linecap="round"/>
<path d="M63.069 23.6025C84.3063 27.0576 124.79 52.9486 142.377 65.4622C139.722 80.7443 125.454 122.272 108.53 144.53C94.9913 162.337 63.7326 178.085 49.7956 183.732C41.721 170.776 23.979 139.813 17.6078 119.614C11.2366 99.415 17.1654 62.6937 20.9262 46.8579L63.069 23.6025Z" fill="#4AB033"/>
<path d="M139.722 121.939C147.156 110.245 151.545 78.6106 152.43 64.8789C143.803 87.6913 122.932 137.82 111.517 150.843C100.102 163.866 66.8273 186.768 51.8948 195.849C116.934 176.58 130.431 136.557 139.722 121.939Z" fill="#DBDBDB"/>
<path d="M103.553 65.7945L56.4324 96.0265C53.7777 92.2614 48.1365 84.0666 46.8092 81.4088C45.4819 78.7511 42.7166 79.4155 41.4999 80.08C38.9558 82.184 33.2704 86.5915 30.8812 87.3888C28.492 88.1861 29.8857 90.3788 30.8812 91.3754C35.0844 97.6876 44.1545 111.707 46.8092 117.289C49.4639 122.87 54.3308 122.715 56.4324 121.94C71.033 108.651 101.562 80.2129 106.871 72.7712C112.18 65.3294 106.871 65.0194 103.553 65.7945Z" fill="black"/>
<path d="M102.549 65.1295L55.4287 95.3615C52.774 91.5963 47.1329 83.4016 45.8055 80.7438C44.4782 78.086 41.7129 78.7505 40.4962 79.4149C37.9522 81.519 32.2667 85.9264 29.8775 86.7237C27.4884 87.5211 28.8821 89.7137 29.8775 90.7104C34.0808 97.0226 43.1509 111.042 45.8055 116.624C48.4602 122.205 53.3271 122.05 55.4287 121.275C70.0294 107.986 100.558 79.5478 105.867 72.1061C111.177 64.6644 105.867 64.3543 102.549 65.1295Z" fill="white"/>
<path d="M245.489 75.3301C245.931 85.1683 242.04 106.091 224.264 107.14C202.045 108.452 200.718 100.91 197.07 88.7757" stroke="black" stroke-width="2" stroke-linecap="round"/>
<path d="M270.032 115.848L267.182 143.24" stroke="black" stroke-width="2" stroke-linecap="round"/>
<path d="M154.32 107.858L152.609 136.392" stroke="black" stroke-width="2" stroke-linecap="round"/>
<path d="M253.502 134.72L230.701 132.397C231.238 138.237 237.854 144.342 241.096 146.664C250.484 141.621 253.278 136.6 253.502 134.72Z" stroke="black" stroke-width="2" stroke-linecap="round"/>
<path d="M251.375 138.6C253.153 144.741 253.775 157.224 242.043 158.027C230.311 158.831 226.933 149.877 226.711 145.299C226.711 142.508 227.511 136.591 230.711 135.251" stroke="black" stroke-width="2" stroke-linecap="round"/>
<path d="M288.18 172.812C291.419 186.973 307.188 172.937 314.61 165.812L310.783 146.094H292.903C289.979 149.1 284.942 158.651 288.18 172.812Z" fill="black" stroke="black" stroke-width="2" stroke-linecap="round"/>
<path d="M310.712 171C292.953 177.107 288.734 160.934 288.845 152.085C288.845 141.996 295.692 128.191 299.116 122.549L323.965 85.713C321.314 73.2351 322.86 62.8148 323.965 59.1643L330.26 48.5449L334.235 35.9343C337.681 30.3591 342.739 31.8414 344.838 33.2795C350.139 31.1556 353.673 35.0494 354.777 37.2618C359.548 33.2795 363.171 36.93 364.385 39.253C372.006 37.5937 371.343 42.2397 372.006 46.5539C372.536 50.0052 369.355 57.9476 367.699 61.4875L362.066 69.1202C360.476 75.2264 354.115 84.9387 351.133 89.0316C348.703 97.2175 341.922 118.368 334.235 137.483C326.549 156.598 315.35 167.793 310.712 171Z" fill="#F69E70"/>
<path d="M329.314 49.0781L348.694 49.7382C348.147 52.3784 344.884 57.3949 336.212 56.3388C340.591 59.9691 348.168 69.078 343.438 76.4707" stroke="black" stroke-width="2" stroke-linecap="round"/>
<path d="M345.274 33.0996C344.831 36.7553 343.412 44.8407 341.284 47.9372" stroke="black" stroke-width="2" stroke-linecap="round"/>
<path d="M354.964 37.0938C354.964 42.8738 353.415 56.0345 347.217 62.437C345.421 62.8816 341.491 63.2373 340.144 61.1031" stroke="black" stroke-width="2" stroke-linecap="round"/>
<path d="M364.655 39.377C364.542 46.5826 362.63 61.8046 355.883 65.0472C349.135 68.2897 348.348 63.9213 348.798 61.3317" stroke="black" stroke-width="2" stroke-linecap="round"/>
<path d="M362.944 68.1702C360.267 68.6998 355.179 68.9328 356.25 65.6279" stroke="black" stroke-width="2" stroke-linecap="round"/>
<path d="M242.886 48.3076C242.017 48.5252 240.407 50.1355 240.929 54.8356" stroke="black" stroke-width="2" stroke-linecap="round"/>
<path d="M178.565 35.8965C177.793 45.8499 177.518 68.5473 181.753 74.9175C187.046 82.8802 193.001 87.857 197.633 86.5298C201.339 85.4681 217.042 79.8942 224.431 77.24" stroke="black" stroke-width="2" stroke-linecap="round"/>
<path d="M261.656 235.319L230.924 238.168L142.141 238.168" stroke="black" stroke-width="2" stroke-linecap="round"/>
<path d="M202.468 235.889L213.281 120.793" stroke="black" stroke-width="2" stroke-linecap="round"/>
</svg>
