<svg width="24" height="24" viewBox="0 0 24 24" fill="none" xmlns="http://www.w3.org/2000/svg">
<path d="M16.5 16.5H18.38V21.5H16.5V16.5ZM19.63 16.5V21.5H21.5V16.5H19.63ZM15 1H9V3H15V1ZM21 13.35C20.36 13.13 19.7 13 19 13C15.69 13 13 15.69 13 19C13 20.03 13.26 21 13.71 21.83C13.16 21.94 12.59 22 12 22C9.61305 22 7.32387 21.0518 5.63604 19.364C3.94821 17.6761 3 15.3869 3 13C3 10.6131 3.94821 8.32387 5.63604 6.63604C7.32387 4.94821 9.61305 4 12 4C14.12 4 16.07 4.74 17.62 6L19.04 4.56C19.55 5 20 5.46 20.45 5.97L19.03 7.39C20.3059 8.98137 21.0008 10.9603 21 13V13.35ZM13 7H11V14H13V7Z" fill="white"/>
</svg>
