<svg width="24" height="24" viewBox="0 0 24 24" fill="none" xmlns="http://www.w3.org/2000/svg">
<path d="M12 6.75C12 7.74456 11.6049 8.69839 10.9017 9.40165C10.1984 10.1049 9.24456 10.5 8.25 10.5C7.25544 10.5 6.30161 10.1049 5.59835 9.40165C4.89509 8.69839 4.5 7.74456 4.5 6.75C4.5 5.75544 4.89509 4.80161 5.59835 4.09835C6.30161 3.39509 7.25544 3 8.25 3C9.24456 3 10.1984 3.39509 10.9017 4.09835C11.6049 4.80161 12 5.75544 12 6.75ZM17.25 9C16.4484 8.9994 15.6511 9.11562 14.883 9.345C14.5376 8.90184 14.3236 8.37059 14.2654 7.81175C14.2072 7.25292 14.3071 6.68897 14.5537 6.18412C14.8003 5.67928 15.1837 5.25383 15.6603 4.95624C16.1368 4.65864 16.6874 4.50086 17.2493 4.50086C17.8111 4.50086 18.3617 4.65864 18.8382 4.95624C19.3148 5.25383 19.6982 5.67928 19.9448 6.18412C20.1914 6.68897 20.2913 7.25292 20.2331 7.81175C20.1749 8.37059 19.9609 8.90184 19.6155 9.345C18.8479 9.11577 18.0511 8.99955 17.25 9ZM4.5 12H10.8855C9.66404 13.4766 8.99708 15.3337 9 17.25C9 17.751 9.045 18.24 9.1305 18.7155C8.83758 18.7388 8.54384 18.7503 8.25 18.75C2.25 18.75 2.25 14.3625 2.25 14.3625V14.25C2.25 13.6533 2.48705 13.081 2.90901 12.659C3.33097 12.2371 3.90326 12 4.5 12ZM10.5 17.25C10.5 19.0402 11.2112 20.7571 12.477 22.023C13.7429 23.2888 15.4598 24 17.25 24C19.0402 24 20.7571 23.2888 22.023 22.023C23.2888 20.7571 24 19.0402 24 17.25C24 15.4598 23.2888 13.7429 22.023 12.477C20.7571 11.2112 19.0402 10.5 17.25 10.5C15.4598 10.5 13.7429 11.2112 12.477 12.477C11.2112 13.7429 10.5 15.4598 10.5 17.25ZM20.25 12.75C20.4489 12.75 20.6397 12.829 20.7803 12.9697C20.921 13.1103 21 13.3011 21 13.5V15.75C21 15.9489 20.921 16.1397 20.7803 16.2803C20.6397 16.421 20.4489 16.5 20.25 16.5H18C17.8011 16.5 17.6103 16.421 17.4697 16.2803C17.329 16.1397 17.25 15.9489 17.25 15.75C17.25 15.5511 17.329 15.3603 17.4697 15.2197C17.6103 15.079 17.8011 15 18 15H18.702C18.2736 14.7615 17.7928 14.6327 17.3025 14.625C16.8995 14.6179 16.4992 14.6921 16.1255 14.8431C15.7518 14.9941 15.4124 15.2189 15.1275 15.504C14.985 15.635 14.7974 15.7058 14.6039 15.7016C14.4104 15.6975 14.226 15.6187 14.0893 15.4818C13.9525 15.3448 13.874 15.1603 13.8701 14.9668C13.8663 14.7733 13.9373 14.5858 14.0685 14.4435C14.7689 13.7431 15.6808 13.2933 16.6628 13.164C17.6448 13.0346 18.6421 13.2329 19.5 13.728V13.5C19.5 13.3011 19.579 13.1103 19.7197 12.9697C19.8603 12.829 20.0511 12.75 20.25 12.75ZM18.936 21.048C18.3021 21.3041 17.6181 21.4124 16.9361 21.3646C16.2541 21.3167 15.592 21.1141 15 20.772V21C15 21.1989 14.921 21.3897 14.7803 21.5303C14.6397 21.671 14.4489 21.75 14.25 21.75C14.0511 21.75 13.8603 21.671 13.7197 21.5303C13.579 21.3897 13.5 21.1989 13.5 21V18.75C13.5 18.5511 13.579 18.3603 13.7197 18.2197C13.8603 18.079 14.0511 18 14.25 18H16.5C16.6989 18 16.8897 18.079 17.0303 18.2197C17.171 18.3603 17.25 18.5511 17.25 18.75C17.25 18.9489 17.171 19.1397 17.0303 19.2803C16.8897 19.421 16.6989 19.5 16.5 19.5H15.798C16.3677 19.8156 17.0247 19.9371 17.6696 19.8462C18.3145 19.7552 18.9123 19.4568 19.3725 18.996C19.515 18.865 19.7026 18.7942 19.8961 18.7984C20.0896 18.8025 20.274 18.8813 20.4107 19.0182C20.5475 19.1552 20.626 19.3397 20.6299 19.5332C20.6337 19.7267 20.5627 19.9142 20.4315 20.0565C20.004 20.484 19.4955 20.823 18.936 21.048Z" fill="white"/>
</svg>
