<svg width="24" height="24" viewBox="0 0 24 24" fill="none" xmlns="http://www.w3.org/2000/svg">
<path d="M7 17H9.1L15.1 11.05L12.95 8.9L7 14.85V17ZM15.8 10.35L16.85 9.25C16.95 9.15 17 9.03333 17 8.9C17 8.76667 16.95 8.65 16.85 8.55L15.45 7.15C15.35 7.05 15.2333 7 15.1 7C14.9667 7 14.85 7.05 14.75 7.15L13.65 8.2L15.8 10.35ZM5 21C4.45 21 3.979 20.804 3.587 20.412C3.195 20.02 2.99934 19.5493 3 19V5C3 4.45 3.196 3.979 3.588 3.587C3.98 3.195 4.45067 2.99933 5 3H9.2C9.41667 2.4 9.77934 1.91667 10.288 1.55C10.7967 1.18333 11.3673 1 12 1C12.6333 1 13.2043 1.18333 13.713 1.55C14.2217 1.91667 14.584 2.4 14.8 3H19C19.55 3 20.021 3.196 20.413 3.588C20.805 3.98 21.0007 4.45067 21 5V19C21 19.55 20.804 20.021 20.412 20.413C20.02 20.805 19.5493 21.0007 19 21H5ZM12 4.25C12.2167 4.25 12.3957 4.179 12.537 4.037C12.6783 3.895 12.7493 3.716 12.75 3.5C12.75 3.28333 12.679 3.10433 12.537 2.963C12.395 2.82167 12.216 2.75067 12 2.75C11.7833 2.75 11.6043 2.821 11.463 2.963C11.3217 3.105 11.2507 3.284 11.25 3.5C11.25 3.71667 11.321 3.89567 11.463 4.037C11.605 4.17833 11.784 4.24933 12 4.25Z" fill="white"/>
</svg>
